<svg version="1" xmlns="http://www.w3.org/2000/svg" width="346.667" height="346.667" viewBox="0 0 260.000000 260.000000"><path d="M121.2 11.7l.3 11.8 11 .7c28.2 1.8 43.8 5.4 62 14.5 22 10.9 37.3 27.9 43 47.7 1.3 4.4 1.6 8.3 1.3 15.5-.5 10.9-3.2 18.8-10.1 29.4-6.6 10.3-19.6 24.1-21.2 22.5-.3-.2 1.9-3.9 4.9-8.1 17.8-25.6 13.2-55.9-12-79.7-3.8-3.6-9.5-8.2-12.7-10.3-15-10-38.2-17.4-59.5-19-7.3-.6-7.5-.4-7 10.8l.3 7 4.2-.3c5.3-.4 21.8 1.5 29.8 3.5 33.4 8.1 56 27.8 60.6 52.7 4.7 25.3-22.4 55.5-60.2 67-4.7 1.4-9.2 2.6-10.1 2.6-2.6 0-3 1.7-.5 2.2 2.4.4 19.5-2.2 26.7-4.1 23-6.2 41.9-16.6 53.9-29.7C240 133 248 114 248 96.1c0-36.5-32.1-72.8-77.5-87.5C159.1 4.8 134.6 0 127.2 0h-6.3l.3 11.7zM96.5 75.5C47 82.9 12.1 109.4 2 147.2c-9.5 36.1 15.5 77.3 59.4 97.9 9.3 4.3 22.3 8.8 33.6 11.4 4.1 1 8.3 2.1 9.2 2.6 1 .5 7.4.9 14.3.9H131v-10.4c0-10.8-.9-13.3-4.3-12-1.7.6-19.4-.9-31.2-2.7-36.9-5.7-67.4-25-80.5-51.1-4.8-9.7-6.4-17-5.7-27.4.8-12.9 8.2-28.1 19.9-41 6-6.5 14.7-13.9 15.5-13.1.3.3-1.6 3.4-4.2 6.9-7.8 10.4-11.2 18.9-12.2 30.3-2.6 30.9 26 64.3 65.4 76.5 13.1 4 35.2 6.6 36.7 4.2.3-.5.2-4.6-.2-9.3l-.7-8.4-10.2-.7c-30.1-2-56.9-13-72-29.7-8.7-9.6-13.5-24.7-11.4-36.4 4.3-25 30.2-48 64.9-57.7 8.2-2.3 11.5-4.1 7-3.9-1.3.1-6.3.7-11.3 1.4zM112.8 74.7c.7.3 1.6.2 1.9-.1.4-.3-.2-.6-1.3-.5-1.1 0-1.4.3-.6.6z"/><path d="M117.5 94.8c-9.7 1-21.2 6.3-27.9 12.9-11.8 11.6-11.3 28.3 1.3 39.6 7.8 7.1 17.1 10.6 30.1 11.4 14.9.9 27-2.3 36.5-9.5 5.9-4.4 11.1-12.7 12.1-18.8 1.9-13.2-8.2-26.7-24.4-32.4-6.4-2.3-20.4-3.9-27.7-3.2z"/></svg>